<svg xmlns="http://www.w3.org/2000/svg" viewBox="0 0 25.81 13.94"><defs><style>.cls-1{fill:#1e1e1c;}</style></defs><title>Asset 3</title><g id="Layer_2" data-name="Layer 2"><g id="Layer_1-2" data-name="Layer 1"><path class="cls-1" d="M1.29,10.32V5.87H0V2.77H1.29V0H5.14V2.77H7.69v3.1H5.14v3.7c0,.77.34,1.09,1.05,1.09a3.38,3.38,0,0,0,1.46-.36v3A5.49,5.49,0,0,1,5,13.94C2.67,13.94,1.29,12.93,1.29,10.32Z"/><path class="cls-1" d="M8.15,2.77H12v1.5a4,4,0,0,1,3.26-1.74A3.36,3.36,0,0,1,18.4,4.31a4.6,4.6,0,0,1,3.66-1.78c2.33,0,3.74,1.46,3.74,4v7.18H22V7.77c0-1.19-.59-1.82-1.5-1.82s-1.58.63-1.58,1.82v5.95H15V7.77c0-1.19-.59-1.82-1.5-1.82S12,6.58,12,7.77v5.95H8.15Z"/></g></g></svg>