<?xml version="1.0" encoding="utf-8"?>
<!-- Generator: Adobe Illustrator 21.0.0, SVG Export Plug-In . SVG Version: 6.00 Build 0)  -->
<svg version="1.1" id="Layer_1" xmlns="http://www.w3.org/2000/svg" xmlns:xlink="http://www.w3.org/1999/xlink" x="0px" y="0px"
	 viewBox="0 0 62.7 6.1" style="enable-background:new 0 0 62.7 6.1;" xml:space="preserve">
<style type="text/css">
	.st0{fill:#A21824;}
	.st1{fill:#8C8C8C;}
	.st2{fill:#FFFFFF;}
</style>
<title>Asset 2</title>
<metadata><?xpacket begin="﻿" id="W5M0MpCehiHzreSzNTczkc9d"?>
<x:xmpmeta xmlns:x="adobe:ns:meta/" x:xmptk="Adobe XMP Core 5.6-c137 79.159768, 2016/08/11-13:24:42        ">
   <rdf:RDF xmlns:rdf="http://www.w3.org/1999/02/22-rdf-syntax-ns#">
      <rdf:Description rdf:about=""
            xmlns:dc="http://purl.org/dc/elements/1.1/">
         <dc:title>
            <rdf:Alt>
               <rdf:li xml:lang="x-default">Asset 2</rdf:li>
            </rdf:Alt>
         </dc:title>
      </rdf:Description>
   </rdf:RDF>
</x:xmpmeta>
                                                                                                    
                                                                                                    
                                                                                                    
                                                                                                    
                                                                                                    
                                                                                                    
                                                                                                    
                                                                                                    
                                                                                                    
                                                                                                    
                                                                                                    
                                                                                                    
                                                                                                    
                                                                                                    
                                                                                                    
                                                                                                    
                                                                                                    
                                                                                                    
                                                                                                    
                                                                                                    
                           
<?xpacket end="w"?></metadata>
<g id="Layer_2">
	<g id="Layer_1-2">
		<path class="st0" d="M5.1,1.5H3.3V0.1h5.1v1.4H6.7V6H5.1V1.5z"/>
		<path class="st0" d="M8.7,3c0-1.7,1.4-3,3.1-3c0,0,0,0,0.1,0c1.7,0,3,1.4,3,3s-1.4,3-3,3c-1.7,0.1-3.1-1.2-3.1-2.8
			C8.7,3.1,8.7,3.1,8.7,3z M13.3,3c0-0.8-0.6-1.5-1.4-1.6c0,0,0,0-0.1,0c-0.8,0-1.5,0.7-1.5,1.5c0,0,0,0,0,0.1
			c0,0.8,0.6,1.5,1.4,1.6c0,0,0,0,0,0C12.7,4.6,13.3,3.9,13.3,3C13.3,3,13.3,3,13.3,3z"/>
		<path class="st0" d="M15.8,0.1h2.5c1.5,0,2.4,0.8,2.4,2.1s-1.1,2.1-2.5,2.1h-0.8V6h-1.6V0.1z M18.2,3c0.6,0,0.9-0.3,0.9-0.8
			s-0.4-0.8-0.9-0.8h-0.8V3H18.2z"/>
		<path class="st1" d="M2,5.6H1.2v0.2H0.7V5.6H0.2V5h0.5V4.5h0.6V5h0.7C2,5,2.1,4.9,2.1,4.8c0-0.1,0-0.2-0.1-0.3h0.5
			C2.6,4.7,2.7,4.8,2.7,5c0,0.3-0.2,0.6-0.5,0.6C2.1,5.7,2.1,5.7,2,5.6z"/>
		<path class="st1" d="M0,4.2V3.5h1C0.8,3.4,0.7,3.2,0.7,2.9c0-0.4,0.3-0.7,0.6-0.7c0,0,0.1,0,0.1,0h1.2V3H1.6
			C1.4,3,1.2,3.1,1.2,3.3c0,0.2,0.1,0.3,0.3,0.3c0,0,0,0,0,0h1.1v0.7L0,4.2z"/>
		<path class="st1" d="M1.7,2c-0.6,0-1-0.4-1-1c0-0.6,0.4-1,1-1c0,0,0,0,0.1,0h0.1v1.3c0.2,0,0.3-0.2,0.3-0.4c0-0.2-0.1-0.3-0.2-0.4
			l0.3-0.4C2.6,0.3,2.7,0.6,2.7,1C2.7,1.5,2.3,2,1.7,2C1.7,2,1.7,2,1.7,2z M1.5,0.7C1.3,0.7,1.1,0.8,1.1,1s0.1,0.3,0.4,0.3V0.7z"/>
		<path class="st2" d="M21.8,0.1h1.7l1.4,2.3l1.4-2.3H28V6h-1.6V2.6l-1.5,2.3l0,0l-1.5-2.3V6h-1.6V0.1z"/>
		<path class="st2" d="M31,0.1h1.6L35,6h-1.7l-0.4-1h-2.3l-0.4,1h-1.7L31,0.1z M32.4,3.6L31.8,2l-0.7,1.7L32.4,3.6z"/>
		<path class="st2" d="M35.2,5.1L36.2,4c0.5,0.4,1.2,0.7,1.9,0.7c0.4,0,0.7-0.2,0.7-0.4s-0.2-0.4-1-0.6c-1.2-0.3-2.2-0.6-2.2-1.9
			S36.4,0,37.8,0c0.9,0,1.7,0.2,2.4,0.8l-0.8,1.1c-0.5-0.4-1-0.6-1.6-0.6c-0.4,0-0.6,0.2-0.6,0.4s0.2,0.4,1,0.6
			c1.3,0.3,2.2,0.7,2.2,1.8S39.4,6,38,6C37,6,36,5.7,35.2,5.1z"/>
		<path class="st2" d="M42.4,1.5h-1.8V0.1h5.1v1.4H44V6h-1.6V1.5z"/>
		<path class="st2" d="M46.5,0.1h4.7v1.4h-3.1v0.9h2.8v1.3h-2.8v0.9h3.1V6h-4.7V0.1z"/>
		<path class="st2" d="M52,0.1h2.8c0.7-0.1,1.4,0.2,1.9,0.6c0.4,0.4,0.5,0.9,0.5,1.4c0,0.8-0.4,1.5-1.2,1.8l1.4,2h-1.9l-1.2-1.7
			h-0.7V6H52V0.1z M54.7,2.9c0.5,0,0.9-0.3,0.9-0.7s-0.3-0.7-0.9-0.7h-1v1.4L54.7,2.9z"/>
		<path class="st2" d="M57.6,5.1L58.5,4c0.5,0.4,1.2,0.7,1.9,0.7c0.4,0,0.7-0.2,0.7-0.4s-0.2-0.4-1-0.6c-1.2-0.3-2.2-0.6-2.2-1.9
			S58.7,0,60.1,0c0.9,0,1.7,0.2,2.4,0.8l-0.8,1.2c-0.5-0.4-1-0.6-1.6-0.6c-0.4,0-0.6,0.2-0.6,0.4s0.2,0.4,1,0.6
			c1.3,0.3,2.2,0.7,2.2,1.8S61.7,6,60.3,6C59.3,6,58.3,5.7,57.6,5.1z"/>
	</g>
</g>
</svg>
